<?xml version="1.0" encoding="utf-8"?>
<svg version="1.1" xmlns:xlink="http://www.w3.org/1999/xlink" width="12px" height="12px" viewBox="821 1000  12 12" xmlns="http://www.w3.org/2000/svg">
  <path d="M 822 1003  A 2 2 0 0 1 824 1001 L 830 1001  A 2 2 0 0 1 832 1003 L 832 1009  A 2 2 0 0 1 830 1011 L 824 1011  A 2 2 0 0 1 822 1009 L 822 1003  Z " fill-rule="nonzero" fill="#ffffff" stroke="none" />
  <path d="M 821.5 1003  A 2.5 2.5 0 0 1 824 1000.5 L 830 1000.5  A 2.5 2.5 0 0 1 832.5 1003 L 832.5 1009  A 2.5 2.5 0 0 1 830 1011.5 L 824 1011.5  A 2.5 2.5 0 0 1 821.5 1009 L 821.5 1003  Z " stroke-width="1" stroke="#f60068" fill="none" stroke-opacity="0.847058823529412" />
  <path d="M 823.571428571429 1006  L 826.142857142857 1008.57142857143  " stroke-width="2.57142857142857" stroke="#f60068" fill="none" stroke-opacity="0.847058823529412" />
  <path d="M 826.142857142857 1008.57142857143  L 830.428571428571 1002.57142857143  " stroke-width="2.57142857142857" stroke="#f60068" fill="none" stroke-opacity="0.847058823529412" />
</svg>