<?xml version="1.0" encoding="utf-8"?>
<svg version="1.1" xmlns:xlink="http://www.w3.org/1999/xlink" width="12px" height="12px" viewBox="1485 78  12 12" xmlns="http://www.w3.org/2000/svg">
  <path d="M 1485.5 81  A 2.5 2.5 0 0 1 1488 78.5 L 1494 78.5  A 2.5 2.5 0 0 1 1496.5 81 L 1496.5 87  A 2.5 2.5 0 0 1 1494 89.5 L 1488 89.5  A 2.5 2.5 0 0 1 1485.5 87 L 1485.5 81  Z " fill-rule="nonzero" fill="#ffffff" stroke="none" />
  <path d="M 1485.5 81  A 2.5 2.5 0 0 1 1488 78.5 L 1494 78.5  A 2.5 2.5 0 0 1 1496.5 81 L 1496.5 87  A 2.5 2.5 0 0 1 1494 89.5 L 1488 89.5  A 2.5 2.5 0 0 1 1485.5 87 L 1485.5 81  Z " stroke-width="1" stroke="#797979" fill="none" />
</svg>