<?xml version="1.0" encoding="utf-8"?>
<svg version="1.1" xmlns:xlink="http://www.w3.org/1999/xlink" width="11px" height="11px" viewBox="2002 49  11 11" xmlns="http://www.w3.org/2000/svg">
  <path d="M 2003 53  A 3 3 0 0 1 2006 50 L 2009 50  A 3 3 0 0 1 2012 53 L 2012 56  A 3 3 0 0 1 2009 59 L 2006 59  A 3 3 0 0 1 2003 56 L 2003 53  Z " fill-rule="nonzero" fill="#ffffff" stroke="none" />
  <path d="M 2002.5 53  A 3.5 3.5 0 0 1 2006 49.5 L 2009 49.5  A 3.5 3.5 0 0 1 2012.5 53 L 2012.5 56  A 3.5 3.5 0 0 1 2009 59.5 L 2006 59.5  A 3.5 3.5 0 0 1 2002.5 56 L 2002.5 53  Z " stroke-width="1" stroke="#f60068" fill="none" stroke-opacity="0.996078431372549" />
  <path d="M 2004.35714285714 54.5  L 2006.71428571429 56.8571428571429  " stroke-width="2.35714285714286" stroke="#f60068" fill="none" stroke-opacity="0.996078431372549" />
  <path d="M 2006.71428571429 56.8571428571429  L 2010.64285714286 51.3571428571429  " stroke-width="2.35714285714286" stroke="#f60068" fill="none" stroke-opacity="0.996078431372549" />
</svg>