<?xml version="1.0" encoding="utf-8"?>
<svg version="1.1" xmlns:xlink="http://www.w3.org/1999/xlink" width="83px" height="32px" xmlns="http://www.w3.org/2000/svg">
  <g transform="matrix(1 0 0 1 -1347 -190 )">
    <path d="M 1349 195  A 3 3 0 0 1 1352 192 L 1425 192  A 3 3 0 0 1 1428 195 L 1428 217  A 3 3 0 0 1 1425 220 L 1352 220  A 3 3 0 0 1 1349 217 L 1349 195  Z " fill-rule="nonzero" fill="#ffffff" stroke="none" />
    <path d="M 1348 195  A 4 4 0 0 1 1352 191 L 1425 191  A 4 4 0 0 1 1429 195 L 1429 217  A 4 4 0 0 1 1425 221 L 1352 221  A 4 4 0 0 1 1348 217 L 1348 195  Z " stroke-width="2" stroke="#a408bf" fill="none" stroke-opacity="0.996078431372549" />
  </g>
</svg>