<?xml version="1.0" encoding="utf-8"?>
<svg version="1.1" xmlns:xlink="http://www.w3.org/1999/xlink" width="32px" height="27px" xmlns="http://www.w3.org/2000/svg">
  <g transform="matrix(1 0 0 1 -110 -241 )">
    <path d="M 7.38461538461539 20  L 7.38461538461539 24.75  L 24.6153846153846 24.75  L 24.6153846153846 20  L 7.38461538461539 20  Z M 8 2.25  L 8 13  L 24.6153846153846 13  L 24.6153846153846 6.75  L 21.5384615384615 6.75  C 21.025641025641 6.75  20.5897435897436 6.5859375  20.2307692307692 6.2578125  C 19.8717948717949 5.9296875  19.6923076923077 5.53125  19.6923076923077 5.0625  L 19.6923076923077 2.25  L 8 2.25  Z M 29.1730769230769 15.416015625  C 29.4166666666667 15.193359375  29.5384615384615 14.9296875  29.5384615384615 14.625  C 29.5384615384615 14.3203125  29.4166666666667 14.056640625  29.1730769230769 13.833984375  C 28.9294871794872 13.611328125  28.6410256410256 13.5  28.3076923076923 13.5  C 27.974358974359 13.5  27.6858974358974 13.611328125  27.4423076923077 13.833984375  C 27.198717948718 14.056640625  27.0769230769231 14.3203125  27.0769230769231 14.625  C 27.0769230769231 14.9296875  27.198717948718 15.193359375  27.4423076923077 15.416015625  C 27.6858974358974 15.638671875  27.974358974359 15.75  28.3076923076923 15.75  C 28.6410256410256 15.75  28.9294871794872 15.638671875  29.1730769230769 15.416015625  Z M 30.9134615384615 12.2431640625  C 31.6378205128205 12.9052734375  32 13.69921875  32 14.625  L 32 21.9375  C 32 22.08984375  31.9391025641026 22.2216796875  31.8173076923077 22.3330078125  C 31.6955128205128 22.4443359375  31.5512820512821 22.5  31.3846153846154 22.5  L 27.0769230769231 22.5  L 27.0769230769231 25.3125  C 27.0769230769231 25.78125  26.8974358974359 26.1796875  26.5384615384615 26.5078125  C 26.1794871794872 26.8359375  25.7435897435897 27  25.2307692307692 27  L 6.76923076923077 27  C 6.25641025641026 27  5.82051282051282 26.8359375  5.46153846153846 26.5078125  C 5.1025641025641 26.1796875  4.92307692307692 25.78125  4.92307692307692 25.3125  L 4.92307692307692 22.5  L 0.615384615384615 22.5  C 0.448717948717949 22.5  0.30448717948718 22.4443359375  0.182692307692308 22.3330078125  C 0.0608974358974359 22.2216796875  0 22.08984375  0 21.9375  L 0 14.625  C 0 13.69921875  0.362179487179487 12.9052734375  1.08653846153846 12.2431640625  C 1.81089743589744 11.5810546875  2.67948717948718 11.25  3.69230769230769 11.25  L 4.92307692307692 11.25  L 4.92307692307692 1.6875  C 4.92307692307692 1.21875  5.1025641025641 0.820312499999996  5.46153846153846 0.492187499999999  C 5.82051282051282 0.164062499999999  6.25641025641026 0  6.76923076923077 0  L 19.6923076923077 0  C 20.2051282051282 0  20.7692307692308 0.117187499999997  21.3846153846154 0.351562500000001  C 22 0.585937499999999  22.4871794871795 0.867187499999998  22.8461538461538 1.1953125  L 25.7692307692308 3.8671875  C 26.1282051282051 4.1953125  26.4358974358974 4.640625  26.6923076923077 5.203125  C 26.948717948718 5.765625  27.0769230769231 6.28125  27.0769230769231 6.75  L 27.0769230769231 11.25  L 28.3076923076923 11.25  C 29.3205128205128 11.25  30.1891025641026 11.5810546875  30.9134615384615 12.2431640625  Z " fill-rule="nonzero" fill="#d42d00" stroke="none" transform="matrix(1 0 0 1 110 241 )" />
  </g>
</svg>