<?xml version="1.0" encoding="utf-8"?>
<svg version="1.1" xmlns:xlink="http://www.w3.org/1999/xlink" width="12px" height="12px" viewBox="1485 77  12 12" xmlns="http://www.w3.org/2000/svg">
  <path d="M 1485.5 80  A 2.5 2.5 0 0 1 1488 77.5 L 1494 77.5  A 2.5 2.5 0 0 1 1496.5 80 L 1496.5 86  A 2.5 2.5 0 0 1 1494 88.5 L 1488 88.5  A 2.5 2.5 0 0 1 1485.5 86 L 1485.5 80  Z " fill-rule="nonzero" fill="#ffffff" stroke="none" />
  <path d="M 1485.5 80  A 2.5 2.5 0 0 1 1488 77.5 L 1494 77.5  A 2.5 2.5 0 0 1 1496.5 80 L 1496.5 86  A 2.5 2.5 0 0 1 1494 88.5 L 1488 88.5  A 2.5 2.5 0 0 1 1485.5 86 L 1485.5 80  Z " stroke-width="1" stroke="#f60068" fill="none" />
  <path d="M 1487.57142857143 83  L 1490.14285714286 85.5714285714286  " stroke-width="2.57142857142857" stroke="#f60068" fill="none" />
  <path d="M 1490.14285714286 85.5714285714286  L 1494.42857142857 79.5714285714286  " stroke-width="2.57142857142857" stroke="#f60068" fill="none" />
</svg>