<?xml version="1.0" encoding="utf-8"?>
<svg version="1.1" xmlns:xlink="http://www.w3.org/1999/xlink" width="32px" height="27px" xmlns="http://www.w3.org/2000/svg">
  <g transform="matrix(1 0 0 1 -159 -241 )">
    <path d="M 24.25 24.416015625  C 24.4935897435897 24.193359375  24.6153846153846 23.9296875  24.6153846153846 23.625  C 24.6153846153846 23.3203125  24.4935897435897 23.056640625  24.25 22.833984375  C 24.0064102564103 22.611328125  23.7179487179487 22.5  23.3846153846154 22.5  C 23.0512820512821 22.5  22.7628205128205 22.611328125  22.5192307692308 22.833984375  C 22.275641025641 23.056640625  22.1538461538462 23.3203125  22.1538461538462 23.625  C 22.1538461538462 23.9296875  22.275641025641 24.193359375  22.5192307692308 24.416015625  C 22.7628205128205 24.638671875  23.0512820512821 24.75  23.3846153846154 24.75  C 23.7179487179487 24.75  24.0064102564103 24.638671875  24.25 24.416015625  Z M 29.1730769230769 24.416015625  C 29.4166666666667 24.193359375  29.5384615384615 23.9296875  29.5384615384615 23.625  C 29.5384615384615 23.3203125  29.4166666666667 23.056640625  29.1730769230769 22.833984375  C 28.9294871794872 22.611328125  28.6410256410256 22.5  28.3076923076923 22.5  C 27.974358974359 22.5  27.6858974358974 22.611328125  27.4423076923077 22.833984375  C 27.198717948718 23.056640625  27.0769230769231 23.3203125  27.0769230769231 23.625  C 27.0769230769231 23.9296875  27.198717948718 24.193359375  27.4423076923077 24.416015625  C 27.6858974358974 24.638671875  27.974358974359 24.75  28.3076923076923 24.75  C 28.6410256410256 24.75  28.9294871794872 24.638671875  29.1730769230769 24.416015625  Z M 31.4615384615385 18.4921875  C 31.8205128205128 18.8203125  32 19.21875  32 19.6875  L 32 25.3125  C 32 25.78125  31.8205128205128 26.1796875  31.4615384615385 26.5078125  C 31.1025641025641 26.8359375  30.6666666666667 27  30.1538461538462 27  L 1.84615384615385 27  C 1.33333333333333 27  0.897435897435898 26.8359375  0.538461538461538 26.5078125  C 0.179487179487179 26.1796875  0 25.78125  0 25.3125  L 0 19.6875  C 0 19.21875  0.179487179487179 18.8203125  0.538461538461538 18.4921875  C 0.897435897435898 18.1640625  1.33333333333333 18  1.84615384615385 18  L 10.7884615384615 18  L 13.3846153846154 20.390625  C 14.1282051282051 21.046875  15 21.375  16 21.375  C 17 21.375  17.8717948717949 21.046875  18.6153846153846 20.390625  L 21.2307692307692 18  L 30.1538461538462 18  C 30.6666666666667 18  31.1025641025641 18.1640625  31.4615384615385 18.4921875  Z M 24.6153846153846 9  C 25.1538461538462 9  25.5320512820513 9.228515625  25.75 9.685546875  C 25.9679487179487 10.166015625  25.8782051282051 10.576171875  25.4807692307692 10.916015625  L 16.8653846153846 18.791015625  C 16.6346153846154 19.013671875  16.3461538461538 19.125  16 19.125  C 15.6538461538462 19.125  15.3653846153846 19.013671875  15.1346153846154 18.791015625  L 6.51923076923077 10.916015625  C 6.12179487179487 10.576171875  6.03205128205128 10.166015625  6.25 9.685546875  C 6.46794871794872 9.228515625  6.84615384615385 9  7.38461538461539 9  L 12.3076923076923 9  L 12.3076923076923 1.125  C 12.3076923076923 0.820312499999996  12.4294871794872 0.556640624999996  12.6730769230769 0.333984374999999  C 12.9166666666667 0.111328125000002  13.2051282051282 0  13.5384615384615 0  L 18.4615384615385 0  C 18.7948717948718 0  19.0833333333333 0.111328125000002  19.3269230769231 0.333984374999999  C 19.5705128205128 0.556640624999996  19.6923076923077 0.820312499999996  19.6923076923077 1.125  L 19.6923076923077 9  L 24.6153846153846 9  Z " fill-rule="nonzero" fill="#146a15" stroke="none" transform="matrix(1 0 0 1 159 241 )" />
  </g>
</svg>