<?xml version="1.0" encoding="utf-8"?>
<svg version="1.1" xmlns:xlink="http://www.w3.org/1999/xlink" width="11px" height="11px" viewBox="1997 51  11 11" xmlns="http://www.w3.org/2000/svg">
  <path d="M 1998 55  A 3 3 0 0 1 2001 52 L 2004 52  A 3 3 0 0 1 2007 55 L 2007 58  A 3 3 0 0 1 2004 61 L 2001 61  A 3 3 0 0 1 1998 58 L 1998 55  Z " fill-rule="nonzero" fill="#ffffff" stroke="none" />
  <path d="M 1997.5 55  A 3.5 3.5 0 0 1 2001 51.5 L 2004 51.5  A 3.5 3.5 0 0 1 2007.5 55 L 2007.5 58  A 3.5 3.5 0 0 1 2004 61.5 L 2001 61.5  A 3.5 3.5 0 0 1 1997.5 58 L 1997.5 55  Z " stroke-width="1" stroke="#f60068" fill="none" stroke-opacity="0.996078431372549" />
</svg>