<?xml version="1.0" encoding="utf-8"?>
<svg version="1.1" xmlns:xlink="http://www.w3.org/1999/xlink" width="12px" height="12px" viewBox="1485 79  12 12" xmlns="http://www.w3.org/2000/svg">
  <path d="M 1485.5 82  A 2.5 2.5 0 0 1 1488 79.5 L 1494 79.5  A 2.5 2.5 0 0 1 1496.5 82 L 1496.5 88  A 2.5 2.5 0 0 1 1494 90.5 L 1488 90.5  A 2.5 2.5 0 0 1 1485.5 88 L 1485.5 82  Z " fill-rule="nonzero" fill="#f0f0f0" stroke="none" />
  <path d="M 1485.5 82  A 2.5 2.5 0 0 1 1488 79.5 L 1494 79.5  A 2.5 2.5 0 0 1 1496.5 82 L 1496.5 88  A 2.5 2.5 0 0 1 1494 90.5 L 1488 90.5  A 2.5 2.5 0 0 1 1485.5 88 L 1485.5 82  Z " stroke-width="1" stroke="#f60068" fill="none" />
</svg>