<?xml version="1.0" encoding="utf-8"?>
<svg version="1.1" xmlns:xlink="http://www.w3.org/1999/xlink" width="11px" height="11px" viewBox="426 58  11 11" xmlns="http://www.w3.org/2000/svg">
  <path d="M 426.5 62  A 3.5 3.5 0 0 1 430 58.5 L 433 58.5  A 3.5 3.5 0 0 1 436.5 62 L 436.5 65  A 3.5 3.5 0 0 1 433 68.5 L 430 68.5  A 3.5 3.5 0 0 1 426.5 65 L 426.5 62  Z " fill-rule="nonzero" fill="#ffffff" stroke="none" />
  <path d="M 426.5 62  A 3.5 3.5 0 0 1 430 58.5 L 433 58.5  A 3.5 3.5 0 0 1 436.5 62 L 436.5 65  A 3.5 3.5 0 0 1 433 68.5 L 430 68.5  A 3.5 3.5 0 0 1 426.5 65 L 426.5 62  Z " stroke-width="1" stroke="#797979" fill="none" />
  <path d="M 428.357142857143 63.5  L 430.714285714286 65.8571428571428  " stroke-width="2.35714285714286" stroke="#797979" fill="none" />
  <path d="M 430.714285714286 65.8571428571428  L 434.642857142857 60.3571428571429  " stroke-width="2.35714285714286" stroke="#797979" fill="none" />
</svg>