<?xml version="1.0" encoding="utf-8"?>
<svg version="1.1" xmlns:xlink="http://www.w3.org/1999/xlink" width="11px" height="11px" viewBox="426 87  11 11" xmlns="http://www.w3.org/2000/svg">
  <path d="M 427 91  A 3 3 0 0 1 430 88 L 433 88  A 3 3 0 0 1 436 91 L 436 94  A 3 3 0 0 1 433 97 L 430 97  A 3 3 0 0 1 427 94 L 427 91  Z " fill-rule="nonzero" fill="#ffffff" stroke="none" />
  <path d="M 426.5 91  A 3.5 3.5 0 0 1 430 87.5 L 433 87.5  A 3.5 3.5 0 0 1 436.5 91 L 436.5 94  A 3.5 3.5 0 0 1 433 97.5 L 430 97.5  A 3.5 3.5 0 0 1 426.5 94 L 426.5 91  Z " stroke-width="1" stroke="#106c2f" fill="none" stroke-opacity="0.996078431372549" />
</svg>