<?xml version="1.0" encoding="utf-8"?>
<svg version="1.1" xmlns:xlink="http://www.w3.org/1999/xlink" width="11px" height="11px" viewBox="472 87  11 11" xmlns="http://www.w3.org/2000/svg">
  <path d="M 473 91  A 3 3 0 0 1 476 88 L 479 88  A 3 3 0 0 1 482 91 L 482 94  A 3 3 0 0 1 479 97 L 476 97  A 3 3 0 0 1 473 94 L 473 91  Z " fill-rule="nonzero" fill="#ffffff" stroke="none" />
  <path d="M 472.5 91  A 3.5 3.5 0 0 1 476 87.5 L 479 87.5  A 3.5 3.5 0 0 1 482.5 91 L 482.5 94  A 3.5 3.5 0 0 1 479 97.5 L 476 97.5  A 3.5 3.5 0 0 1 472.5 94 L 472.5 91  Z " stroke-width="1" stroke="#106c2f" fill="none" stroke-opacity="0.996078431372549" />
</svg>