<?xml version="1.0" encoding="utf-8"?>
<svg version="1.1" xmlns:xlink="http://www.w3.org/1999/xlink" width="11px" height="11px" viewBox="472 87  11 11" xmlns="http://www.w3.org/2000/svg">
  <path d="M 472.5 91  A 3.5 3.5 0 0 1 476 87.5 L 479 87.5  A 3.5 3.5 0 0 1 482.5 91 L 482.5 94  A 3.5 3.5 0 0 1 479 97.5 L 476 97.5  A 3.5 3.5 0 0 1 472.5 94 L 472.5 91  Z " fill-rule="nonzero" fill="#ffffff" stroke="none" />
  <path d="M 472.5 91  A 3.5 3.5 0 0 1 476 87.5 L 479 87.5  A 3.5 3.5 0 0 1 482.5 91 L 482.5 94  A 3.5 3.5 0 0 1 479 97.5 L 476 97.5  A 3.5 3.5 0 0 1 472.5 94 L 472.5 91  Z " stroke-width="1" stroke="#797979" fill="none" />
  <path d="M 474.357142857143 92.5  L 476.714285714286 94.8571428571428  " stroke-width="2.35714285714286" stroke="#797979" fill="none" />
  <path d="M 476.714285714286 94.8571428571428  L 480.642857142857 89.3571428571429  " stroke-width="2.35714285714286" stroke="#797979" fill="none" />
</svg>