<?xml version="1.0" encoding="utf-8"?>
<svg version="1.1" xmlns:xlink="http://www.w3.org/1999/xlink" width="11px" height="11px" viewBox="1618 328  11 11" xmlns="http://www.w3.org/2000/svg">
  <path d="M 1619 332  A 3 3 0 0 1 1622 329 L 1625 329  A 3 3 0 0 1 1628 332 L 1628 335  A 3 3 0 0 1 1625 338 L 1622 338  A 3 3 0 0 1 1619 335 L 1619 332  Z " fill-rule="nonzero" fill="#f0f0f0" stroke="none" />
  <path d="M 1618.5 332  A 3.5 3.5 0 0 1 1622 328.5 L 1625 328.5  A 3.5 3.5 0 0 1 1628.5 332 L 1628.5 335  A 3.5 3.5 0 0 1 1625 338.5 L 1622 338.5  A 3.5 3.5 0 0 1 1618.5 335 L 1618.5 332  Z " stroke-width="1" stroke="#8c8c8c" fill="none" stroke-opacity="0.737254901960784" />
</svg>