<?xml version="1.0" encoding="utf-8"?>
<svg version="1.1" xmlns:xlink="http://www.w3.org/1999/xlink" width="11px" height="11px" viewBox="1618 276  11 11" xmlns="http://www.w3.org/2000/svg">
  <path d="M 1619 280  A 3 3 0 0 1 1622 277 L 1625 277  A 3 3 0 0 1 1628 280 L 1628 283  A 3 3 0 0 1 1625 286 L 1622 286  A 3 3 0 0 1 1619 283 L 1619 280  Z " fill-rule="nonzero" fill="#ffffff" stroke="none" />
  <path d="M 1618.5 280  A 3.5 3.5 0 0 1 1622 276.5 L 1625 276.5  A 3.5 3.5 0 0 1 1628.5 280 L 1628.5 283  A 3.5 3.5 0 0 1 1625 286.5 L 1622 286.5  A 3.5 3.5 0 0 1 1618.5 283 L 1618.5 280  Z " stroke-width="1" stroke="#8c8c8c" fill="none" stroke-opacity="0.737254901960784" />
  <path d="M 1620.35714285714 281.5  L 1622.71428571429 283.857142857143  " stroke-width="2.35714285714286" stroke="#8c8c8c" fill="none" stroke-opacity="0.737254901960784" />
  <path d="M 1622.71428571429 283.857142857143  L 1626.64285714286 278.357142857143  " stroke-width="2.35714285714286" stroke="#8c8c8c" fill="none" stroke-opacity="0.737254901960784" />
</svg>