<?xml version="1.0" encoding="utf-8"?>
<svg version="1.1" xmlns:xlink="http://www.w3.org/1999/xlink" width="11px" height="11px" viewBox="1618 308  11 11" xmlns="http://www.w3.org/2000/svg">
  <path d="M 1619 312  A 3 3 0 0 1 1622 309 L 1625 309  A 3 3 0 0 1 1628 312 L 1628 315  A 3 3 0 0 1 1625 318 L 1622 318  A 3 3 0 0 1 1619 315 L 1619 312  Z " fill-rule="nonzero" fill="#f0f0f0" stroke="none" />
  <path d="M 1618.5 312  A 3.5 3.5 0 0 1 1622 308.5 L 1625 308.5  A 3.5 3.5 0 0 1 1628.5 312 L 1628.5 315  A 3.5 3.5 0 0 1 1625 318.5 L 1622 318.5  A 3.5 3.5 0 0 1 1618.5 315 L 1618.5 312  Z " stroke-width="1" stroke="#8c8c8c" fill="none" stroke-opacity="0.737254901960784" />
</svg>