<?xml version="1.0" encoding="utf-8"?>
<svg version="1.1" xmlns:xlink="http://www.w3.org/1999/xlink" width="11px" height="11px" viewBox="1618 340  11 11" xmlns="http://www.w3.org/2000/svg">
  <path d="M 1619 344  A 3 3 0 0 1 1622 341 L 1625 341  A 3 3 0 0 1 1628 344 L 1628 347  A 3 3 0 0 1 1625 350 L 1622 350  A 3 3 0 0 1 1619 347 L 1619 344  Z " fill-rule="nonzero" fill="#ffffff" stroke="none" />
  <path d="M 1618.5 344  A 3.5 3.5 0 0 1 1622 340.5 L 1625 340.5  A 3.5 3.5 0 0 1 1628.5 344 L 1628.5 347  A 3.5 3.5 0 0 1 1625 350.5 L 1622 350.5  A 3.5 3.5 0 0 1 1618.5 347 L 1618.5 344  Z " stroke-width="1" stroke="#8c8c8c" fill="none" stroke-opacity="0.737254901960784" />
</svg>