<?xml version="1.0" encoding="utf-8"?>
<svg version="1.1" xmlns:xlink="http://www.w3.org/1999/xlink" width="11px" height="11px" viewBox="483 193  11 11" xmlns="http://www.w3.org/2000/svg">
  <path d="M 484 197  A 3 3 0 0 1 487 194 L 490 194  A 3 3 0 0 1 493 197 L 493 200  A 3 3 0 0 1 490 203 L 487 203  A 3 3 0 0 1 484 200 L 484 197  Z " fill-rule="nonzero" fill="#ffffff" stroke="none" />
  <path d="M 483.5 197  A 3.5 3.5 0 0 1 487 193.5 L 490 193.5  A 3.5 3.5 0 0 1 493.5 197 L 493.5 200  A 3.5 3.5 0 0 1 490 203.5 L 487 203.5  A 3.5 3.5 0 0 1 483.5 200 L 483.5 197  Z " stroke-width="1" stroke="#f60068" fill="none" stroke-opacity="0.996078431372549" />
  <path d="M 485.357142857143 198.5  L 487.714285714286 200.857142857143  " stroke-width="2.35714285714286" stroke="#f60068" fill="none" stroke-opacity="0.996078431372549" />
  <path d="M 487.714285714286 200.857142857143  L 491.642857142857 195.357142857143  " stroke-width="2.35714285714286" stroke="#f60068" fill="none" stroke-opacity="0.996078431372549" />
</svg>