<?xml version="1.0" encoding="utf-8"?>
<svg version="1.1" xmlns:xlink="http://www.w3.org/1999/xlink" width="11px" height="11px" viewBox="1618 372  11 11" xmlns="http://www.w3.org/2000/svg">
  <path d="M 1619 376  A 3 3 0 0 1 1622 373 L 1625 373  A 3 3 0 0 1 1628 376 L 1628 379  A 3 3 0 0 1 1625 382 L 1622 382  A 3 3 0 0 1 1619 379 L 1619 376  Z " fill-rule="nonzero" fill="#ffffff" stroke="none" />
  <path d="M 1618.5 376  A 3.5 3.5 0 0 1 1622 372.5 L 1625 372.5  A 3.5 3.5 0 0 1 1628.5 376 L 1628.5 379  A 3.5 3.5 0 0 1 1625 382.5 L 1622 382.5  A 3.5 3.5 0 0 1 1618.5 379 L 1618.5 376  Z " stroke-width="1" stroke="#8c8c8c" fill="none" stroke-opacity="0.737254901960784" />
</svg>