<?xml version="1.0" encoding="utf-8"?>
<svg version="1.1" xmlns:xlink="http://www.w3.org/1999/xlink" width="11px" height="11px" viewBox="425 34  11 11" xmlns="http://www.w3.org/2000/svg">
  <path d="M 426 38  A 3 3 0 0 1 429 35 L 432 35  A 3 3 0 0 1 435 38 L 435 41  A 3 3 0 0 1 432 44 L 429 44  A 3 3 0 0 1 426 41 L 426 38  Z " fill-rule="nonzero" fill="#ffffff" stroke="none" />
  <path d="M 425.5 38  A 3.5 3.5 0 0 1 429 34.5 L 432 34.5  A 3.5 3.5 0 0 1 435.5 38 L 435.5 41  A 3.5 3.5 0 0 1 432 44.5 L 429 44.5  A 3.5 3.5 0 0 1 425.5 41 L 425.5 38  Z " stroke-width="1" stroke="#a800c3" fill="none" stroke-opacity="0.996078431372549" />
</svg>