<?xml version="1.0" encoding="utf-8"?>
<svg version="1.1" xmlns:xlink="http://www.w3.org/1999/xlink" width="11px" height="11px" viewBox="425 34  11 11" xmlns="http://www.w3.org/2000/svg">
  <path d="M 425.5 38  A 3.5 3.5 0 0 1 429 34.5 L 432 34.5  A 3.5 3.5 0 0 1 435.5 38 L 435.5 41  A 3.5 3.5 0 0 1 432 44.5 L 429 44.5  A 3.5 3.5 0 0 1 425.5 41 L 425.5 38  Z " fill-rule="nonzero" fill="#ffffff" stroke="none" />
  <path d="M 425.5 38  A 3.5 3.5 0 0 1 429 34.5 L 432 34.5  A 3.5 3.5 0 0 1 435.5 38 L 435.5 41  A 3.5 3.5 0 0 1 432 44.5 L 429 44.5  A 3.5 3.5 0 0 1 425.5 41 L 425.5 38  Z " stroke-width="1" stroke="#797979" fill="none" />
  <path d="M 427.357142857143 39.5  L 429.714285714286 41.8571428571429  " stroke-width="2.35714285714286" stroke="#797979" fill="none" />
  <path d="M 429.714285714286 41.8571428571429  L 433.642857142857 36.3571428571429  " stroke-width="2.35714285714286" stroke="#797979" fill="none" />
</svg>