<?xml version="1.0" encoding="utf-8"?>
<svg version="1.1" xmlns:xlink="http://www.w3.org/1999/xlink" width="63px" height="54px" viewBox="866 195  63 54" xmlns="http://www.w3.org/2000/svg">
  <path d="M 867 210  A 14 14 0 0 1 881 196 L 914 196  A 14 14 0 0 1 928 210 L 928 234  A 14 14 0 0 1 914 248 L 881 248  A 14 14 0 0 1 867 234 L 867 210  Z " fill-rule="nonzero" fill="#ffffff" stroke="none" />
  <path d="M 866.5 210  A 14.5 14.5 0 0 1 881 195.5 L 914 195.5  A 14.5 14.5 0 0 1 928.5 210 L 928.5 234  A 14.5 14.5 0 0 1 914 248.5 L 881 248.5  A 14.5 14.5 0 0 1 866.5 234 L 866.5 210  Z " stroke-width="1" stroke="#8c8c8c" fill="none" stroke-opacity="0.352941176470588" />
</svg>