<?xml version="1.0" encoding="utf-8"?>
<svg version="1.1" xmlns:xlink="http://www.w3.org/1999/xlink" width="11px" height="11px" viewBox="472 58  11 11" xmlns="http://www.w3.org/2000/svg">
  <path d="M 473 62  A 3 3 0 0 1 476 59 L 479 59  A 3 3 0 0 1 482 62 L 482 65  A 3 3 0 0 1 479 68 L 476 68  A 3 3 0 0 1 473 65 L 473 62  Z " fill-rule="nonzero" fill="#ffffff" stroke="none" />
  <path d="M 472.5 62  A 3.5 3.5 0 0 1 476 58.5 L 479 58.5  A 3.5 3.5 0 0 1 482.5 62 L 482.5 65  A 3.5 3.5 0 0 1 479 68.5 L 476 68.5  A 3.5 3.5 0 0 1 472.5 65 L 472.5 62  Z " stroke-width="1" stroke="#106c2f" fill="none" stroke-opacity="0.996078431372549" />
  <path d="M 474.357142857143 63.5  L 476.714285714286 65.8571428571428  " stroke-width="2.35714285714286" stroke="#106c2f" fill="none" stroke-opacity="0.996078431372549" />
  <path d="M 476.714285714286 65.8571428571428  L 480.642857142857 60.3571428571429  " stroke-width="2.35714285714286" stroke="#106c2f" fill="none" stroke-opacity="0.996078431372549" />
</svg>