<?xml version="1.0" encoding="utf-8"?>
<svg version="1.1" xmlns:xlink="http://www.w3.org/1999/xlink" width="11px" height="11px" viewBox="426 117  11 11" xmlns="http://www.w3.org/2000/svg">
  <path d="M 426.5 121  A 3.5 3.5 0 0 1 430 117.5 L 433 117.5  A 3.5 3.5 0 0 1 436.5 121 L 436.5 124  A 3.5 3.5 0 0 1 433 127.5 L 430 127.5  A 3.5 3.5 0 0 1 426.5 124 L 426.5 121  Z " fill-rule="nonzero" fill="#ffffff" stroke="none" />
  <path d="M 426.5 121  A 3.5 3.5 0 0 1 430 117.5 L 433 117.5  A 3.5 3.5 0 0 1 436.5 121 L 436.5 124  A 3.5 3.5 0 0 1 433 127.5 L 430 127.5  A 3.5 3.5 0 0 1 426.5 124 L 426.5 121  Z " stroke-width="1" stroke="#797979" fill="none" />
  <path d="M 428.357142857143 122.5  L 430.714285714286 124.857142857143  " stroke-width="2.35714285714286" stroke="#797979" fill="none" />
  <path d="M 430.714285714286 124.857142857143  L 434.642857142857 119.357142857143  " stroke-width="2.35714285714286" stroke="#797979" fill="none" />
</svg>