<?xml version="1.0" encoding="utf-8"?>
<svg version="1.1" xmlns:xlink="http://www.w3.org/1999/xlink" width="11px" height="11px" viewBox="472 117  11 11" xmlns="http://www.w3.org/2000/svg">
  <path d="M 473 121  A 3 3 0 0 1 476 118 L 479 118  A 3 3 0 0 1 482 121 L 482 124  A 3 3 0 0 1 479 127 L 476 127  A 3 3 0 0 1 473 124 L 473 121  Z " fill-rule="nonzero" fill="#ffffff" stroke="none" />
  <path d="M 472.5 121  A 3.5 3.5 0 0 1 476 117.5 L 479 117.5  A 3.5 3.5 0 0 1 482.5 121 L 482.5 124  A 3.5 3.5 0 0 1 479 127.5 L 476 127.5  A 3.5 3.5 0 0 1 472.5 124 L 472.5 121  Z " stroke-width="1" stroke="#106c2f" fill="none" stroke-opacity="0.996078431372549" />
  <path d="M 474.357142857143 122.5  L 476.714285714286 124.857142857143  " stroke-width="2.35714285714286" stroke="#106c2f" fill="none" stroke-opacity="0.996078431372549" />
  <path d="M 476.714285714286 124.857142857143  L 480.642857142857 119.357142857143  " stroke-width="2.35714285714286" stroke="#106c2f" fill="none" stroke-opacity="0.996078431372549" />
</svg>