<?xml version="1.0" encoding="utf-8"?>
<svg version="1.1" xmlns:xlink="http://www.w3.org/1999/xlink" width="11px" height="11px" viewBox="1618 360  11 11" xmlns="http://www.w3.org/2000/svg">
  <path d="M 1619 364  A 3 3 0 0 1 1622 361 L 1625 361  A 3 3 0 0 1 1628 364 L 1628 367  A 3 3 0 0 1 1625 370 L 1622 370  A 3 3 0 0 1 1619 367 L 1619 364  Z " fill-rule="nonzero" fill="#ffffff" stroke="none" />
  <path d="M 1618.5 364  A 3.5 3.5 0 0 1 1622 360.5 L 1625 360.5  A 3.5 3.5 0 0 1 1628.5 364 L 1628.5 367  A 3.5 3.5 0 0 1 1625 370.5 L 1622 370.5  A 3.5 3.5 0 0 1 1618.5 367 L 1618.5 364  Z " stroke-width="1" stroke="#8c8c8c" fill="none" stroke-opacity="0.737254901960784" />
</svg>