<?xml version="1.0" encoding="utf-8"?>
<svg version="1.1" xmlns:xlink="http://www.w3.org/1999/xlink" width="11px" height="11px" viewBox="1618 424  11 11" xmlns="http://www.w3.org/2000/svg">
  <path d="M 1619 428  A 3 3 0 0 1 1622 425 L 1625 425  A 3 3 0 0 1 1628 428 L 1628 431  A 3 3 0 0 1 1625 434 L 1622 434  A 3 3 0 0 1 1619 431 L 1619 428  Z " fill-rule="nonzero" fill="#f0f0f0" stroke="none" />
  <path d="M 1618.5 428  A 3.5 3.5 0 0 1 1622 424.5 L 1625 424.5  A 3.5 3.5 0 0 1 1628.5 428 L 1628.5 431  A 3.5 3.5 0 0 1 1625 434.5 L 1622 434.5  A 3.5 3.5 0 0 1 1618.5 431 L 1618.5 428  Z " stroke-width="1" stroke="#8c8c8c" fill="none" stroke-opacity="0.737254901960784" />
  <path d="M 1620.35714285714 429.5  L 1622.71428571429 431.857142857143  " stroke-width="2.35714285714286" stroke="#8c8c8c" fill="none" stroke-opacity="0.737254901960784" />
  <path d="M 1622.71428571429 431.857142857143  L 1626.64285714286 426.357142857143  " stroke-width="2.35714285714286" stroke="#8c8c8c" fill="none" stroke-opacity="0.737254901960784" />
</svg>