<?xml version="1.0" encoding="utf-8"?>
<svg version="1.1" xmlns:xlink="http://www.w3.org/1999/xlink" width="11px" height="11px" viewBox="429 193  11 11" xmlns="http://www.w3.org/2000/svg">
  <path d="M 430 197  A 3 3 0 0 1 433 194 L 436 194  A 3 3 0 0 1 439 197 L 439 200  A 3 3 0 0 1 436 203 L 433 203  A 3 3 0 0 1 430 200 L 430 197  Z " fill-rule="nonzero" fill="#ffffff" stroke="none" />
  <path d="M 429.5 197  A 3.5 3.5 0 0 1 433 193.5 L 436 193.5  A 3.5 3.5 0 0 1 439.5 197 L 439.5 200  A 3.5 3.5 0 0 1 436 203.5 L 433 203.5  A 3.5 3.5 0 0 1 429.5 200 L 429.5 197  Z " stroke-width="1" stroke="#f60068" fill="none" stroke-opacity="0.996078431372549" />
  <path d="M 431.357142857143 198.5  L 433.714285714286 200.857142857143  " stroke-width="2.35714285714286" stroke="#f60068" fill="none" stroke-opacity="0.996078431372549" />
  <path d="M 433.714285714286 200.857142857143  L 437.642857142857 195.357142857143  " stroke-width="2.35714285714286" stroke="#f60068" fill="none" stroke-opacity="0.996078431372549" />
</svg>