<?xml version="1.0" encoding="utf-8"?>
<svg version="1.1" xmlns:xlink="http://www.w3.org/1999/xlink" width="11px" height="11px" viewBox="471 34  11 11" xmlns="http://www.w3.org/2000/svg">
  <path d="M 472 38  A 3 3 0 0 1 475 35 L 478 35  A 3 3 0 0 1 481 38 L 481 41  A 3 3 0 0 1 478 44 L 475 44  A 3 3 0 0 1 472 41 L 472 38  Z " fill-rule="nonzero" fill="#ffffff" stroke="none" />
  <path d="M 471.5 38  A 3.5 3.5 0 0 1 475 34.5 L 478 34.5  A 3.5 3.5 0 0 1 481.5 38 L 481.5 41  A 3.5 3.5 0 0 1 478 44.5 L 475 44.5  A 3.5 3.5 0 0 1 471.5 41 L 471.5 38  Z " stroke-width="1" stroke="#a800c3" fill="none" stroke-opacity="0.996078431372549" />
</svg>