<?xml version="1.0" encoding="utf-8"?>
<svg version="1.1" xmlns:xlink="http://www.w3.org/1999/xlink" width="11px" height="11px" viewBox="2151 198  11 11" xmlns="http://www.w3.org/2000/svg">
  <path d="M 2152 202  A 3 3 0 0 1 2155 199 L 2158 199  A 3 3 0 0 1 2161 202 L 2161 205  A 3 3 0 0 1 2158 208 L 2155 208  A 3 3 0 0 1 2152 205 L 2152 202  Z " fill-rule="nonzero" fill="#ffffff" stroke="none" />
  <path d="M 2151.5 202  A 3.5 3.5 0 0 1 2155 198.5 L 2158 198.5  A 3.5 3.5 0 0 1 2161.5 202 L 2161.5 205  A 3.5 3.5 0 0 1 2158 208.5 L 2155 208.5  A 3.5 3.5 0 0 1 2151.5 205 L 2151.5 202  Z " stroke-width="1" stroke="#8c8c8c" fill="none" stroke-opacity="0.737254901960784" />
</svg>