<?xml version="1.0" encoding="utf-8"?>
<svg version="1.1" xmlns:xlink="http://www.w3.org/1999/xlink" width="2054px" height="1019px" xmlns="http://www.w3.org/2000/svg">
  <g transform="matrix(1 0 0 1 -5 0 )">
    <path d="M 6 5  A 4 4 0 0 1 10 1 L 2054 1  A 4 4 0 0 1 2058 5 L 2058 1014  A 4 4 0 0 1 2054 1018 L 10 1018  A 4 4 0 0 1 6 1014 L 6 5  Z " fill-rule="nonzero" fill="#ffffff" stroke="none" fill-opacity="0.298039215686275" />
    <path d="M 5.5 5  A 4.5 4.5 0 0 1 10 0.5 L 2054 0.5  A 4.5 4.5 0 0 1 2058.5 5 L 2058.5 1014  A 4.5 4.5 0 0 1 2054 1018.5 L 10 1018.5  A 4.5 4.5 0 0 1 5.5 1014 L 5.5 5  Z " stroke-width="1" stroke="#8c8c8c" fill="none" stroke-opacity="0.352941176470588" />
  </g>
</svg>