<?xml version="1.0" encoding="utf-8"?>
<svg version="1.1" xmlns:xlink="http://www.w3.org/1999/xlink" width="63px" height="54px" viewBox="827 444  63 54" xmlns="http://www.w3.org/2000/svg">
  <path d="M 828 459  A 14 14 0 0 1 842 445 L 875 445  A 14 14 0 0 1 889 459 L 889 483  A 14 14 0 0 1 875 497 L 842 497  A 14 14 0 0 1 828 483 L 828 459  Z " fill-rule="nonzero" fill="#f0f0f0" stroke="none" />
  <path d="M 827.5 459  A 14.5 14.5 0 0 1 842 444.5 L 875 444.5  A 14.5 14.5 0 0 1 889.5 459 L 889.5 483  A 14.5 14.5 0 0 1 875 497.5 L 842 497.5  A 14.5 14.5 0 0 1 827.5 483 L 827.5 459  Z " stroke-width="1" stroke="#8c8c8c" fill="none" stroke-opacity="0.352941176470588" />
</svg>