<?xml version="1.0" encoding="utf-8"?>
<svg version="1.1" xmlns:xlink="http://www.w3.org/1999/xlink" width="12px" height="12px" viewBox="821 874  12 12" xmlns="http://www.w3.org/2000/svg">
  <path d="M 821.5 877  A 2.5 2.5 0 0 1 824 874.5 L 830 874.5  A 2.5 2.5 0 0 1 832.5 877 L 832.5 883  A 2.5 2.5 0 0 1 830 885.5 L 824 885.5  A 2.5 2.5 0 0 1 821.5 883 L 821.5 877  Z " fill-rule="nonzero" fill="#ffffff" stroke="none" />
  <path d="M 821.5 877  A 2.5 2.5 0 0 1 824 874.5 L 830 874.5  A 2.5 2.5 0 0 1 832.5 877 L 832.5 883  A 2.5 2.5 0 0 1 830 885.5 L 824 885.5  A 2.5 2.5 0 0 1 821.5 883 L 821.5 877  Z " stroke-width="1" stroke="#797979" fill="none" />
</svg>