<?xml version="1.0" encoding="utf-8"?>
<svg version="1.1" xmlns:xlink="http://www.w3.org/1999/xlink" width="12px" height="12px" viewBox="821 874  12 12" xmlns="http://www.w3.org/2000/svg">
  <path d="M 822 877  A 2 2 0 0 1 824 875 L 830 875  A 2 2 0 0 1 832 877 L 832 883  A 2 2 0 0 1 830 885 L 824 885  A 2 2 0 0 1 822 883 L 822 877  Z " fill-rule="nonzero" fill="#ffffff" stroke="none" />
  <path d="M 821.5 877  A 2.5 2.5 0 0 1 824 874.5 L 830 874.5  A 2.5 2.5 0 0 1 832.5 877 L 832.5 883  A 2.5 2.5 0 0 1 830 885.5 L 824 885.5  A 2.5 2.5 0 0 1 821.5 883 L 821.5 877  Z " stroke-width="1" stroke="#f60068" fill="none" stroke-opacity="0.847058823529412" />
  <path d="M 823.571428571429 880  L 826.142857142857 882.571428571429  " stroke-width="2.57142857142857" stroke="#f60068" fill="none" stroke-opacity="0.847058823529412" />
  <path d="M 826.142857142857 882.571428571429  L 830.428571428571 876.571428571429  " stroke-width="2.57142857142857" stroke="#f60068" fill="none" stroke-opacity="0.847058823529412" />
</svg>