<?xml version="1.0" encoding="utf-8"?>
<svg version="1.1" xmlns:xlink="http://www.w3.org/1999/xlink" width="12px" height="12px" viewBox="821 965  12 12" xmlns="http://www.w3.org/2000/svg">
  <path d="M 822 968  A 2 2 0 0 1 824 966 L 830 966  A 2 2 0 0 1 832 968 L 832 974  A 2 2 0 0 1 830 976 L 824 976  A 2 2 0 0 1 822 974 L 822 968  Z " fill-rule="nonzero" fill="#ffffff" stroke="none" />
  <path d="M 821.5 968  A 2.5 2.5 0 0 1 824 965.5 L 830 965.5  A 2.5 2.5 0 0 1 832.5 968 L 832.5 974  A 2.5 2.5 0 0 1 830 976.5 L 824 976.5  A 2.5 2.5 0 0 1 821.5 974 L 821.5 968  Z " stroke-width="1" stroke="#f60068" fill="none" stroke-opacity="0.847058823529412" />
  <path d="M 823.571428571429 971  L 826.142857142857 973.571428571429  " stroke-width="2.57142857142857" stroke="#f60068" fill="none" stroke-opacity="0.847058823529412" />
  <path d="M 826.142857142857 973.571428571429  L 830.428571428571 967.571428571429  " stroke-width="2.57142857142857" stroke="#f60068" fill="none" stroke-opacity="0.847058823529412" />
</svg>