<?xml version="1.0" encoding="utf-8"?>
<svg version="1.1" xmlns:xlink="http://www.w3.org/1999/xlink" width="11px" height="11px" viewBox="1249 18  11 11" xmlns="http://www.w3.org/2000/svg">
  <path d="M 1249.5 22  A 3.5 3.5 0 0 1 1253 18.5 L 1256 18.5  A 3.5 3.5 0 0 1 1259.5 22 L 1259.5 25  A 3.5 3.5 0 0 1 1256 28.5 L 1253 28.5  A 3.5 3.5 0 0 1 1249.5 25 L 1249.5 22  Z " fill-rule="nonzero" fill="#ffffff" stroke="none" />
  <path d="M 1249.5 22  A 3.5 3.5 0 0 1 1253 18.5 L 1256 18.5  A 3.5 3.5 0 0 1 1259.5 22 L 1259.5 25  A 3.5 3.5 0 0 1 1256 28.5 L 1253 28.5  A 3.5 3.5 0 0 1 1249.5 25 L 1249.5 22  Z " stroke-width="1" stroke="#146a15" fill="none" />
  <path d="M 1251.35714285714 23.5  L 1253.71428571429 25.8571428571429  " stroke-width="2.35714285714286" stroke="#146a15" fill="none" />
  <path d="M 1253.71428571429 25.8571428571429  L 1257.64285714286 20.3571428571429  " stroke-width="2.35714285714286" stroke="#146a15" fill="none" />
</svg>