<?xml version="1.0" encoding="utf-8"?>
<svg version="1.1" xmlns:xlink="http://www.w3.org/1999/xlink" width="2054px" height="726px" xmlns="http://www.w3.org/2000/svg">
  <g>
    <path d="M 1 5  A 4 4 0 0 1 5 1 L 2049 1  A 4 4 0 0 1 2053 5 L 2053 721  A 4 4 0 0 1 2049 725 L 5 725  A 4 4 0 0 1 1 721 L 1 5  Z " fill-rule="nonzero" fill="#fff7f7" stroke="none" fill-opacity="0.298039215686275" />
    <path d="M 0.5 5  A 4.5 4.5 0 0 1 5 0.5 L 2049 0.5  A 4.5 4.5 0 0 1 2053.5 5 L 2053.5 721  A 4.5 4.5 0 0 1 2049 725.5 L 5 725.5  A 4.5 4.5 0 0 1 0.5 721 L 0.5 5  Z " stroke-width="1" stroke="#8c8c8c" fill="none" stroke-opacity="0.352941176470588" />
  </g>
</svg>